<svg width="17" height="20" viewBox="0 0 17 20" fill="none" xmlns="http://www.w3.org/2000/svg">
<path d="M9.73753 2.66506C9.71653 2.65456 7.63603 1.66656 5.98053 1.54056C4.24053 1.40506 2.49703 2.32856 2.47903 2.33856L2.24353 1.89706C2.31953 1.85656 4.13353 0.901057 6.01853 1.04156C7.76803 1.17556 9.86453 2.17206 9.95303 2.21406L9.73753 2.66506Z" fill="black"/>
<path d="M7.97852 3.64851L7.75952 3.19901L9.47452 2.36301L8.36652 0.840509L8.77102 0.546509L10.2295 2.55051L7.97852 3.64851Z" fill="black"/>
<path d="M0.511459 4.95704L0.295959 4.50604C0.384459 4.46404 2.48096 3.46754 4.23096 3.33354C6.10996 3.19654 7.92946 4.14854 8.00546 4.18904L7.76996 4.63054C7.75246 4.62104 6.00346 3.69704 4.26896 3.83254C2.61346 3.95854 0.532459 4.94704 0.511459 4.95704Z" fill="black"/>
<path d="M2.27097 5.9405L0.0194702 4.8425L1.47797 2.8385L1.88247 3.1325L0.77447 4.655L2.48947 5.491L2.27097 5.9405Z" fill="black"/>
<path d="M11.669 19.719C11.0325 19.719 10.387 19.65 9.80301 19.52C8.80651 19.298 6.71001 17.6985 6.26651 17.239C5.86551 16.8235 4.79151 15.2285 4.63401 13.931C4.56501 13.366 4.99851 11.6825 5.52901 11.0835C5.63351 10.966 5.74301 10.887 5.85501 10.848C5.83248 10.7966 5.80964 10.7452 5.78651 10.694C5.44151 9.94305 4.93051 9.07554 4.47951 8.30954C3.71601 7.01254 3.43151 6.49454 3.47951 6.19954C3.56001 5.69954 3.97001 5.12254 4.51601 5.02154L4.61251 5.00204C4.75327 4.96811 4.89725 4.94934 5.04201 4.94604C5.51851 4.94604 5.95501 5.21804 6.41651 5.80154C6.81601 6.30704 7.46301 7.70254 8.00751 8.96504C7.98251 8.64704 7.99201 8.38154 8.05901 8.22654C8.32901 7.60004 9.08201 7.35354 9.31151 7.33905L9.36801 7.33754C9.51351 7.33754 10.258 7.37404 10.603 8.09804C10.658 8.21404 10.7105 8.33904 10.759 8.46554C10.821 8.25054 10.909 8.06304 11.0345 7.95604C11.4205 7.62804 11.949 7.45804 12.3085 7.55904C12.695 7.66754 13.0205 8.07654 13.138 8.60304C13.1885 8.48904 13.2495 8.39654 13.3215 8.34254C13.671 8.08054 14.279 8.05254 14.664 8.31954C15.134 8.64554 16.215 10.5985 16.405 12.3065C16.5605 13.7105 16.736 16.2195 16.1565 17.2535C15.5545 18.326 14.323 19.159 13.4335 19.4785C13.0005 19.633 12.374 19.719 11.669 19.719ZM6.03401 11.329C5.70201 11.362 5.05151 13.222 5.13001 13.8695C5.27101 15.0335 6.27051 16.5225 6.62651 16.8915C7.05001 17.3305 9.05501 18.8405 9.91101 19.031C10.4605 19.1535 11.0675 19.2185 11.6685 19.2185C12.308 19.2185 12.889 19.141 13.263 19.006C13.9355 18.7645 15.1435 18.033 15.719 17.0065C16.093 16.341 16.1615 14.647 15.907 12.3605C15.7265 10.7315 14.673 8.93355 14.3785 8.72855C14.142 8.56505 13.748 8.64505 13.6205 8.74104C13.55 8.82154 13.4455 9.29254 13.405 9.74104L13.2795 11.1245L12.915 9.78405C12.915 9.78405 12.753 9.18904 12.651 8.71754C12.564 8.31904 12.342 8.08604 12.1725 8.03904C11.986 7.98604 11.6115 8.11954 11.358 8.33554C11.22 8.45304 11.1175 9.13204 11.113 9.66704L11.094 11.7455L10.6195 9.72155C10.6175 9.71255 10.419 8.87004 10.1515 8.31154C9.93551 7.85854 9.46051 7.83554 9.36801 7.83554C9.22251 7.84554 8.69001 8.02455 8.51801 8.42305C8.39801 8.70255 8.67001 10.161 8.99051 11.3515L8.51651 11.5075C8.50001 11.464 6.75751 7.03655 6.02501 6.11004C5.55401 5.51404 5.23901 5.44504 5.04301 5.44504C4.93301 5.44504 4.82701 5.46704 4.71551 5.49054L4.60801 5.51204C4.32701 5.56404 4.03151 5.92254 3.97301 6.27904C3.97751 6.47004 4.49501 7.34904 4.91101 8.05554C5.36751 8.83154 5.88551 9.71104 6.24101 10.4845C6.33151 10.681 6.41551 10.8855 6.49301 11.0945L6.49401 11.098C7.03651 11.8455 7.30651 14.304 7.33601 14.5865L6.83951 14.644C6.83751 14.6265 6.60851 12.8755 6.05351 11.3475C6.04744 11.3409 6.04092 11.3348 6.03401 11.329Z" fill="black"/>
</svg>
